<?xml version="1.0" encoding="UTF-8" standalone="no"?>
<!-- Created with Inkscape (http://www.inkscape.org/) -->
<svg
   xmlns:dc="http://purl.org/dc/elements/1.1/"
   xmlns:cc="http://web.resource.org/cc/"
   xmlns:rdf="http://www.w3.org/1999/02/22-rdf-syntax-ns#"
   xmlns:svg="http://www.w3.org/2000/svg"
   xmlns="http://www.w3.org/2000/svg"
   xmlns:sodipodi="http://inkscape.sourceforge.net/DTD/sodipodi-0.dtd"
   xmlns:inkscape="http://www.inkscape.org/namespaces/inkscape"
   sodipodi:docname="kengo-ichiki.svg"
   sodipodi:docbase="/usr/temp/ART/Portrait"
   inkscape:version="0.41"
   sodipodi:version="0.32"
   id="svg2"
   height="297mm"
   width="210mm">
  <defs
     id="defs3">
    <marker
       orient="auto"
       markerHeight="3"
       markerWidth="4"
       markerUnits="strokeWidth"
       refY="5"
       refX="10"
       viewBox="0 0 10 10"
       id="ArrowStart">
      <path
         id="path1348"
         d="M 10 0 L 0 5 L 10 10 z" />
    </marker>
    <marker
       orient="auto"
       markerHeight="3"
       markerWidth="4"
       markerUnits="strokeWidth"
       refY="5"
       refX="0"
       viewBox="0 0 10 10"
       id="ArrowEnd">
      <path
         id="path1345"
         d="M 0 0 L 10 5 L 0 10 z" />
    </marker>
  </defs>
  <sodipodi:namedview
     inkscape:window-y="96"
     inkscape:window-x="40"
     inkscape:window-height="536"
     inkscape:window-width="640"
     inkscape:current-layer="layer1"
     inkscape:document-units="px"
     inkscape:cy="520.00000"
     inkscape:cx="375.00000"
     inkscape:zoom="0.35000000"
     inkscape:pageshadow="2"
     inkscape:pageopacity="0.0"
     borderopacity="1.0"
     bordercolor="#666666"
     pagecolor="#ffffff"
     id="base" />
  <metadata
     id="metadata4">
    <rdf:RDF
       id="RDF5">
      <cc:Work
         id="Work6"
         rdf:about="">
        <dc:format
           id="format7">image/svg+xml</dc:format>
        <dc:type
           rdf:resource="http://purl.org/dc/dcmitype/StillImage"
           id="type9" />
      </cc:Work>
    </rdf:RDF>
  </metadata>
  <g
     id="layer1"
     inkscape:groupmode="layer"
     inkscape:label="Layer 1">
    <g
       transform="translate(151.7158,283.7227)"
       id="g1350">
      <path
         id="path1352"
         d="M 0.00048828100,514.42200 L 0.00048828100,514.42200 L 0.00048828100,514.42200 L 0.00048828100,514.42200"
         style="fill:#000000;fill-rule:evenodd;stroke:none" />
      <path
         id="path1354"
         d="M 218.61400,3.0309400 C 217.70100,4.5649400 214.16400,5.2639500 210.75500,4.5799300 C 207.34600,3.8989300 203.92900,4.4569400 203.16200,5.8199500 C 202.41500,7.1489300 197.73800,8.0309400 193.08900,7.7209500 C 174.51200,6.4839500 143.32400,27.206900 103.59300,67.187900 C 82.959000,87.952900 63.629900,110.01400 60.283000,116.62100 C 56.986100,123.13100 53.042000,130.31500 51.605000,132.42800 C 50.138200,134.58600 48.559100,141.72700 48.041000,148.54500 C 47.523200,155.36300 45.108200,164.63300 42.589100,169.46700 C 33.221200,187.44200 24.684300,207.23400 25.209200,209.75600 C 25.486100,211.08400 24.087400,216.26600 22.197300,220.91400 C 19.220500,228.23600 19.513400,268.33400 22.667200,285.07000 C 24.944100,297.15800 32.325200,314.51400 42.040100,330.63100 C 47.832000,340.23800 52.690000,349.35800 52.690000,350.62100 C 52.690000,351.94900 54.549800,352.28100 57.028800,351.39700 C 59.507600,350.51000 62.273700,351.30700 63.481700,353.25600 C 66.693600,358.43600 62.297900,368.16000 55.788800,370.27200 C 47.927000,372.82400 51.139900,380.68600 61.057600,383.16400 C 71.905500,385.87500 68.805400,393.42000 54.858700,398.25200 C 48.659700,400.40100 43.390900,401.37100 43.390900,400.36500 C 43.390900,397.73800 34.303000,410.28300 34.185100,413.07000 C 34.132100,414.31100 36.417000,415.30700 39.516900,415.39700 C 43.997800,415.52400 43.700700,416.40800 37.812000,420.48600 C 27.785200,427.42800 29.444100,430.35000 41.840800,427.58000 C 47.729700,426.26600 52.651600,426.01000 52.607700,427.01800 C 52.466800,430.25000 14.256800,457.77200 6.8188500,459.99800 C 0.62988300,461.85200 0.0000000,463.90000 0.0000000,482.18600 C 0.0000000,495.82200 1.0507800,501.68000 3.2539100,500.31600 C 4.9997600,499.23600 4.7128900,501.24600 2.6340300,504.65600 C 0.55517600,508.06500 -0.44995100,511.79900 0.46411100,512.71300 C 1.4030800,513.65200 39.825900,514.07000 86.006100,513.64300 L 169.84300,512.86900 L 165.96900,502.02000 C 163.86600,496.13100 161.03200,488.69300 159.77000,485.74800 C 157.83300,481.22900 159.30500,480.32400 168.60300,480.32400 L 179.76000,480.32400 L 173.40700,473.97100 C 169.99800,470.56300 168.05900,466.03700 169.22300,464.20700 C 170.71500,461.86300 172.51800,462.34800 174.99500,465.75800 C 183.92800,478.05500 207.34500,477.53500 216.87600,464.82800 C 221.45800,458.71900 225.63200,457.09800 246.08700,453.48800 C 256.00500,451.73800 269.64200,443.94700 269.64200,440.03300 C 269.64200,438.67400 273.98000,433.52000 279.25000,428.62100 C 296.29600,412.77000 296.86000,406.67200 280.17900,418.57600 C 265.61300,428.97100 243.29800,436.88900 228.73000,436.82800 C 215.40400,436.77200 179.76000,420.60700 179.76000,414.61900 C 179.76000,413.26800 178.21100,412.14100 176.35200,412.14100 C 169.74200,412.14100 157.98600,392.61500 153.02700,373.39900 C 150.86700,365.03100 150.51900,364.79900 149.54300,371.07400 C 148.45800,378.04700 148.45800,378.04700 141.24200,369.36900 C 129.90200,355.73300 126.54200,342.53900 131.45400,330.93800 C 135.65300,321.02000 133.53200,307.76200 126.24700,298.39500 C 124.56100,296.22500 124.12900,293.38300 125.21400,291.57600 C 126.33000,289.71500 126.08200,287.85600 124.59400,286.92600 C 123.22500,286.07000 122.39300,280.10800 122.73500,273.60000 C 123.07700,267.09000 123.51000,257.52400 123.70400,252.21500 C 124.15500,239.81800 138.28800,228.51200 143.85200,236.09800 C 147.71500,241.36700 158.82500,247.87500 163.95500,247.87500 C 165.77300,247.87500 167.36400,245.70500 167.36400,243.22700 C 167.36400,237.64900 170.87300,237.12700 175.73200,241.98600 C 178.15600,244.41000 181.15600,243.38100 186.11500,238.42200 C 192.62400,231.91400 193.34800,231.80100 196.98300,236.71900 C 201.56500,242.91600 203.62600,243.01400 203.62600,237.02700 C 203.62600,228.57600 193.08800,222.46100 178.52100,222.46100 C 170.77300,222.46100 163.19600,223.28700 161.47500,224.32000 C 159.61500,225.43800 157.62200,224.94200 156.49200,223.08000 C 154.02000,219.01600 169.84300,212.52700 179.76100,213.53900 C 190.60900,214.64900 209.72400,225.08400 211.99400,231.14100 C 212.99800,233.81700 213.92500,240.59200 214.00900,245.86100 C 214.14600,254.53900 214.60400,255.03900 218.13500,250.35600 C 223.90700,242.69900 222.05800,225.25000 214.32500,214.40400 C 207.99400,205.52600 198.97800,200.57400 182.55100,196.96100 C 178.21200,196.00600 170.77300,192.29500 166.43400,188.92200 C 158.37600,182.65200 157.98300,180.00200 160.93600,151.79900 C 161.19200,149.35600 197.42700,119.25600 200.52600,118.91200 C 201.90300,118.75800 206.72500,117.60200 211.37400,116.31100 C 217.71400,114.55100 224.70100,116.32000 240.19800,123.61300 C 260.03400,132.94700 288.23800,155.50000 288.23800,162.02700 C 288.23800,163.72900 293.69200,173.02900 300.32400,182.63900 C 311.02100,198.13500 311.93000,200.79100 308.22700,205.72900 C 304.07600,211.26200 298.15400,212.71300 276.77000,213.43800 C 267.16200,213.76200 257.24400,220.55100 257.24400,226.80300 C 257.24400,229.63700 270.57200,229.04900 295.67600,225.10400 C 311.85800,222.56100 328.21000,234.55300 337.29700,255.62700 C 340.10300,262.13700 339.27600,308.11500 336.26700,312.96500 C 335.43400,314.30900 333.90600,322.26400 332.93600,330.32200 C 330.32200,352.01600 320.93000,376.47500 309.84800,390.44900 C 300.81300,401.84000 299.91500,405.17000 298.77600,431.51400 C 298.09200,447.32000 297.07300,465.74600 296.50300,472.58000 C 295.41800,485.59800 299.39600,494.27500 312.41300,507.29300 C 317.69900,512.57800 323.10600,514.42200 333.33500,514.42200 C 342.32200,514.42200 347.12600,513.07200 347.12600,510.54700 C 347.12600,507.75800 347.77700,507.62700 349.45100,510.08200 C 350.71400,511.93600 358.28300,513.49200 366.03100,513.49200 C 378.73800,513.49200 380.12000,512.81800 378.73800,507.29300 C 377.65400,502.95300 378.49000,501.55900 381.52600,502.64300 C 383.89300,503.48800 385.65400,506.51800 385.40000,509.30700 C 384.99100,513.81100 389.89500,514.42200 426.46600,514.42200 L 467.99700,514.42200 L 467.99700,506.98200 C 467.99700,498.25000 458.38900,491.52400 427.70600,478.77900 C 416.54800,474.14500 403.89600,466.95500 399.34700,462.66200 C 391.96900,455.70300 391.22800,453.05500 392.06400,436.62900 C 392.69400,424.23100 391.84600,418.29300 389.43000,418.18800 C 387.49600,418.10400 390.82600,415.34000 396.71400,412.14300 C 402.60200,408.94700 406.21500,406.18400 404.61600,406.10000 C 402.89800,406.01000 403.22100,404.39500 405.39100,402.22700 C 411.10000,396.51800 410.04000,393.48300 402.29200,393.35600 C 395.47300,393.24200 395.43400,393.13100 401.36200,390.76000 C 404.77100,389.39500 408.46700,388.76800 409.57600,389.36300 C 410.64900,389.94300 413.32600,388.27900 415.30900,385.80100 C 417.29300,383.32200 420.25800,381.87500 421.66300,382.70100 C 423.14900,383.57400 425.10800,381.61700 426.15800,378.20700 C 427.66800,373.29700 429.87600,372.51200 437.93400,374.02400 C 446.30200,375.59200 447.27100,375.18000 444.13300,371.39100 C 441.92900,368.72700 440.79300,360.07600 441.34400,350.16000 C 441.92900,339.62100 440.89600,332.04700 438.55500,329.70300 C 434.35300,325.50200 435.77300,300.88100 440.50400,295.92200 C 444.77000,291.44900 443.82400,283.13900 438.55500,278.77700 C 433.59600,274.67400 432.06900,258.68200 436.38500,256.05300 C 441.09200,253.18600 437.73100,212.54900 430.96700,190.54300 C 427.25100,178.45700 424.00700,167.47700 423.63800,165.74800 C 420.84400,152.62900 389.72000,105.62100 368.84700,82.995900 C 352.26300,65.021900 329.87500,43.323900 327.90900,43.323900 C 326.53300,43.323900 319.23100,38.556900 311.48300,32.597900 C 297.31000,21.694900 280.80000,15.431900 266.23300,15.431900 C 261.87800,15.431900 252.90600,11.870900 246.70700,7.6799300 C 234.93000,-0.28106700 221.87200,-2.4390900 218.61400,3.0349400 M 80.738300,270.50400 C 80.886200,277.01200 81.027100,277.04100 83.837200,271.12300 C 86.781000,264.92400 86.781000,264.92400 86.212200,271.12300 C 85.443400,279.49200 89.666000,291.83000 92.669900,289.99600 C 94.035900,289.16200 97.446800,293.28500 100.26200,299.17200 C 105.15400,309.40100 105.13300,309.86500 99.797900,309.86500 C 92.669900,309.86500 86.907000,303.94500 88.938000,298.70700 C 89.774900,296.54900 87.575200,290.64900 84.200200,286.00000 C 77.449200,276.70300 72.671400,258.76800 77.793200,261.95100 C 79.314200,262.89700 80.653100,266.78500 80.737100,270.50400 M 348.67600,328.46100 C 347.65000,330.17200 344.80200,331.56100 342.32200,331.56100 C 339.84300,331.56100 337.82800,330.17200 337.82800,328.46100 C 337.82800,326.79900 340.77200,325.36300 344.18200,325.36300 C 347.59100,325.36300 349.67400,326.79900 348.67600,328.46100 M 404.61900,479.70900 C 403.66400,480.75000 401.21000,479.86300 399.04000,477.69300 C 396.02700,474.68200 396.40600,474.26800 400.74500,475.83400 C 403.84400,476.95300 405.56600,478.67600 404.61900,479.70700 M 445.37500,500.78500 L 454.05300,508.84200 L 444.75500,502.79900 C 439.48600,499.37300 433.44200,496.01800 430.80900,495.05100 C 426.97900,493.64700 427.08900,493.29300 431.42800,493.03500 C 434.25100,492.87100 440.72700,496.46700 445.37500,500.78300"
         style="fill:#000000;fill-rule:evenodd;stroke:none" />
      <path
         id="path1356"
         d="M 276.61600,232.53700 C 272.89700,233.94200 269.64200,236.76200 269.64200,238.58000 C 269.64200,240.44200 270.98000,241.21500 272.58600,240.28500 C 274.20500,239.34800 276.40800,241.37100 277.47900,244.77900 C 279.86600,252.37500 290.40800,252.91800 298.15600,245.84400 C 301.56400,242.73300 303.87500,242.19700 304.09700,244.47100 C 304.88300,252.52900 305.19800,253.68200 307.14300,255.62900 C 311.42300,259.90800 322.11900,253.77000 321.18100,247.57000 C 319.83600,238.68000 316.13200,236.20900 300.63400,233.86900 C 292.88600,232.69900 285.99800,231.35200 285.13700,230.83400 C 284.31200,230.34000 280.33300,231.13500 276.61500,232.53900"
         style="fill:#000000;fill-rule:evenodd;stroke:none" />
      <path
         id="path1358"
         d="M 209.23100,273.60400 C 206.68100,277.49000 203.64100,285.37900 202.54200,290.95900 L 200.52700,301.18800 L 208.74000,295.91800 C 215.26800,291.73100 216.95300,288.17000 216.95300,278.56300 C 216.95300,264.61500 215.66600,263.78700 209.23000,273.60400"
         style="fill:#000000;fill-rule:evenodd;stroke:none" />
      <path
         id="path1360"
         d="M 198.44200,310.79500 C 198.61600,319.12700 203.62700,321.40400 220.05300,320.61700 C 240.19900,319.65200 249.85400,317.70100 248.72900,314.82400 C 247.63700,312.03500 247.63700,312.03500 237.72000,314.51400 C 231.83100,315.98600 227.34800,315.13900 223.77300,311.88100 C 220.05400,308.49000 217.13700,307.93800 213.85500,310.00600 C 207.65600,313.91200 200.51500,313.82000 202.95500,309.86700 C 204.04800,308.09600 203.47300,306.76800 201.61300,306.76800 C 199.86100,306.76800 198.39700,308.62700 198.44300,310.79700"
         style="fill:#000000;fill-rule:evenodd;stroke:none" />
      <path
         id="path1362"
         d="M 207.34600,348.45100 C 206.66200,349.22100 202.07700,350.35000 197.11800,350.96900 C 185.03100,352.48100 183.98000,357.32000 194.01900,365.24400 C 203.62700,372.83000 217.03000,374.84000 211.19900,367.82200 C 206.36800,362.00600 209.82600,359.45300 222.53300,359.45300 C 234.31000,359.45300 234.63600,357.04300 223.15300,354.86100 C 219.43400,354.15400 214.57300,352.08600 212.46000,350.31100 C 210.29000,348.48800 208.04000,347.67000 207.34600,348.45100"
         style="fill:#000000;fill-rule:evenodd;stroke:none" />
      <path
         id="path1364"
         d="M 258.79600,356.51200 C 257.77200,358.12900 259.72500,359.45500 263.13400,359.45500 C 270.57200,359.45500 271.34300,357.71100 264.99400,355.24800 C 262.51600,354.28700 259.85800,354.82800 258.79600,356.51200"
         style="fill:#000000;fill-rule:evenodd;stroke:none" />
    </g>
  </g>
</svg>
